<svg xmlns="http://www.w3.org/2000/svg" version="1.0" preserveAspectRatio="xMidYMid meet" viewBox="561.23 19.57 599.27 617.43">

<g transform="translate(193.7,709.9) scale(0.100000,-0.100000)" fill="#000000" stroke="none">
<path d="M6585 6899 c-156 -7 -191 -10 -305 -24 -394 -48 -873 -232 -1210 -463 -41 -29 -93 -64 -115 -79 -93 -64 -255 -204 -398 -346 -250 -248 -398 -455 -564 -788 -101 -202 -132 -282 -199 -512 -62 -212 -90 -359 -113 -597 -9 -92 -7 -461 3 -550 12 -103 36 -265 51 -345 9 -44 18 -100 22 -125 3 -25 9 -49 13 -55 4 -5 11 -30 15 -55 14 -85 132 -398 202 -535 14 -27 39 -77 56 -110 35 -71 109 -196 146 -245 14 -19 32 -46 40 -60 8 -14 27 -41 43 -60 15 -19 51 -64 79 -100 170 -218 455 -474 715 -643 249 -161 603 -318 864 -382 36 -9 99 -25 141 -35 87 -22 239 -46 349 -55 112 -10 415 -7 543 5 513 49 1056 262 1487 584 174 130 426 373 560 542 234 293 452 713 546 1049 14 50 32 113 40 140 20 72 54 284 63 395 12 143 12 520 0 650 -41 471 -167 908 -351 1222 -18 31 -52 90 -75 130 -143 251 -350 499 -603 722 -158 139 -211 178 -394 291 -448 276 -905 417 -1421 438 -38 1 -142 -1 -230 -4z m415 -464 c189 -22 386 -69 570 -136 215 -78 511 -246 682 -386 96 -78 281 -273 365 -383 146 -194 300 -475 368 -675 95 -279 129 -427 166 -739 22 -182 1 -568 -42 -771 -51 -241 -91 -372 -168 -550 -169 -387 -416 -721 -726 -980 -300 -250 -582 -393 -970 -492 -118 -30 -110 -28 -250 -48 -275 -39 -530 -28 -850 37 -272 55 -558 170 -765 308 -30 20 -81 54 -112 75 -98 65 -309 256 -403 366 -259 300 -470 708 -566 1094 -65 261 -81 394 -80 676 1 279 38 574 97 775 14 49 33 113 41 143 40 150 178 433 302 621 168 256 423 506 697 685 89 58 286 163 379 202 149 62 400 129 605 162 69 11 136 22 150 24 65 11 397 6 510 -8z"/>
<path d="M6945 6185 c-254 -46 -525 -155 -735 -296 -117 -79 -264 -204 -329 -280 -30 -35 -64 -75 -75 -88 -29 -34 -3 -18 79 50 224 182 543 346 877 448 142 44 374 90 521 103 70 7 127 15 127 19 0 8 -94 34 -174 48 -78 14 -203 12 -291 -4z"/>
<path d="M6459 6146 c-2 -2 -80 -9 -174 -15 -344 -23 -553 -97 -800 -281 -173 -130 -315 -286 -430 -471 -102 -165 -134 -257 -160 -461 -7 -59 -24 -138 -38 -175 -95 -256 -138 -519 -131 -803 8 -343 54 -536 181 -752 72 -123 71 -123 129 -26 125 213 249 383 400 545 52 56 94 106 94 111 0 6 -18 40 -41 77 -74 122 -136 309 -159 485 -11 79 -9 170 6 298 4 28 3 52 0 52 -14 0 -104 -207 -127 -290 -18 -68 -23 -112 -23 -220 -1 -156 21 -271 79 -405 19 -44 27 -71 19 -60 -35 44 -79 165 -100 275 -42 213 8 498 122 695 25 44 51 94 56 110 26 81 57 200 53 203 -6 6 -87 -122 -128 -203 -63 -123 -118 -275 -152 -415 -26 -106 -31 -347 -10 -471 18 -111 55 -240 86 -301 29 -56 22 -59 -11 -5 -87 138 -125 299 -124 522 0 138 4 176 28 279 57 246 174 487 344 709 26 34 76 113 111 174 126 222 309 435 491 573 110 84 277 184 352 211 32 12 61 26 64 30 5 9 1 12 -7 5z"/>
<path d="M7340 6115 c-400 -50 -784 -174 -1104 -356 -245 -139 -479 -323 -571 -449 -41 -56 -128 -217 -123 -229 2 -5 26 17 53 48 372 421 900 658 1511 678 230 8 377 -19 564 -103 33 -15 59 -29 57 -30 -2 -2 -26 3 -53 11 -235 70 -695 55 -1045 -35 -431 -110 -827 -341 -1069 -621 -72 -84 -94 -130 -122 -254 -62 -279 -49 -543 38 -762 28 -71 81 -163 92 -163 4 0 51 35 104 78 53 42 137 104 186 137 l90 60 4 305 c4 280 6 311 27 380 76 254 258 421 526 481 96 22 554 19 670 -4 227 -46 362 -87 508 -156 163 -77 242 -102 337 -108 199 -12 350 69 395 213 42 133 -5 285 -127 419 -137 150 -445 339 -703 433 -110 40 -125 42 -245 27z"/>
<path d="M6721 4258 c-302 -22 -558 -111 -822 -283 -276 -180 -570 -497 -759 -818 -79 -135 -193 -374 -230 -483 -31 -89 -34 -110 -35 -214 0 -108 2 -119 31 -180 44 -92 110 -167 253 -287 157 -132 334 -238 511 -308 52 -20 127 -51 165 -67 84 -37 258 -99 263 -94 2 2 -27 20 -65 40 -108 57 -238 169 -316 271 -75 99 -139 223 -155 300 -18 86 -22 126 -11 119 6 -3 13 3 16 15 3 12 8 21 12 21 3 0 32 -55 64 -121 80 -167 122 -226 251 -354 165 -163 307 -243 540 -304 174 -46 249 -56 421 -55 126 0 183 5 270 23 281 58 460 118 686 231 226 113 366 232 484 410 76 115 95 153 128 250 25 76 121 524 115 542 -2 5 -20 -21 -41 -57 -45 -78 -155 -196 -246 -266 -77 -58 -280 -160 -366 -184 -114 -31 -170 -43 -235 -49 -135 -14 -636 -82 -885 -121 -180 -29 -440 -54 -500 -49 -146 11 -190 16 -270 33 -183 39 -387 129 -553 244 -91 63 -217 184 -260 252 -18 28 -23 37 -10 20 113 -149 385 -329 623 -412 207 -71 465 -91 722 -54 226 33 234 41 33 35 -427 -13 -709 48 -939 205 -123 85 -243 216 -302 332 -42 84 -36 84 16 -1 63 -102 118 -164 204 -232 64 -52 157 -108 177 -108 4 0 -23 29 -59 64 -79 77 -207 246 -248 327 -38 77 -37 88 3 19 48 -84 158 -221 158 -197 0 4 -15 35 -34 69 -19 35 -47 99 -62 143 -26 72 -29 93 -29 210 0 88 4 136 13 150 11 17 11 15 5 -20 -39 -210 61 -473 249 -651 118 -113 375 -245 523 -269 l40 -6 -56 33 c-138 82 -208 177 -244 331 -19 81 -19 237 0 312 49 191 193 344 390 412 l80 28 685 2 c444 2 700 6 729 13 61 15 123 61 159 117 20 32 52 124 98 278 92 317 113 395 105 398 -14 8 -1385 3 -1490 -5z m386 -293 c116 -17 298 -60 323 -76 11 -8 7 -9 -15 -5 -322 58 -758 40 -1072 -43 -217 -58 -403 -136 -576 -240 -306 -185 -592 -479 -761 -783 -21 -38 -39 -68 -41 -68 -7 0 47 112 88 185 220 388 542 692 922 867 208 96 493 165 755 182 93 6 263 -3 377 -19z m-1737 -990 c0 -5 -5 -3 -10 5 -5 8 -10 20 -10 25 0 6 5 3 10 -5 5 -8 10 -19 10 -25z m2661 -804 c-224 -268 -618 -434 -1061 -448 -168 -5 -272 5 -440 43 -110 24 -417 130 -408 140 2 2 45 -10 94 -26 364 -117 805 -120 1199 -10 126 36 224 74 353 139 94 47 237 145 276 189 38 43 27 21 -13 -27z"/>
</g>
</svg>